:SAMPLES-PER-SECOND 30
:FRAME-RANGE 1-564
:FULLY-SPECIFIED
:DEGREES
529
root  43.2777 38.3321 -140.277 -9.47906 -76.6479 0.587555
RightUpLeg  16.9315 -2.90939 -2.31914
RightLeg  -7.13142 -11.4217 -1.50597
RightFoot  -2.23254 -0.775017 9.47911
RightToes  -1.74624e-010 0 -3.6325e-017
Spine  5.45909 2.49405 6.22703
Spine1  2.62286 4.3713 -7.94816
HEad  -4.76446 6.30383 -6.84653
LeftShoulder1  3.00558 -3.92431 -34.4373
LeftArm  6.02518 8.44218 -30.1683
LeftForeArm  2.25871 -3.2683 -17.2717
LeftHand  -0.833708 -2.51828 12.4357
RightShoulder  6.46025 4.31765 69.7931
RightArm  13.7408 4.16832 -3.9275
RightForeArm  19.7387 -1.30318 15.8773
RightHand  0.189392 17.3196 0.48187
LeftUpLeg  18.1349 6.82579 3.32198
LeftLeg  -5.32611 10.0549 0.171735
LeftFoot  -5.72221 -0.106745 2.88489
LeftToes  -6.43926e-010 8.38805e-011 -3.16407e-011
530
root  43.2609 38.3335 -140.299 -9.23947 -76.9426 0.328232
RightUpLeg  16.7787 -2.79432 -2.15984
RightLeg  -6.84663 -11.2502 -1.6343
RightFoot  -2.28061 -0.771114 9.43373
RightToes  -1.74624e-010 0 -3.6325e-017
Spine  5.67604 2.71266 6.4603
Spine1  2.31589 4.69335 -8.41032
HEad  -4.4281 6.01206 -6.65868
LeftShoulder1  3.06038 -4.14998 -33.9682
LeftArm  6.41336 7.89576 -30.5054
LeftForeArm  2.2347 -2.63512 -17.5127
LeftHand  -0.877925 -2.76683 12.6983
RightShoulder  6.23307 4.01708 69.9872
RightArm  13.8481 4.25576 -3.83292
RightForeArm  19.5322 -0.839913 15.8045
RightHand  0.193112 17.2612 0.503685
LeftUpLeg  18.1721 6.79579 3.34543
LeftLeg  -5.29674 10.4888 0.243254
LeftFoot  -5.69862 -0.106319 2.85389
LeftToes  -6.43926e-010 8.38805e-011 -3.16407e-011
531
root  43.248 38.3379 -140.315 -9.07089 -77.075 0.129196
RightUpLeg  16.7235 -2.77058 -2.09215
RightLeg  -6.68594 -11.156 -1.65125
RightFoot  -2.29639 -0.767406 9.39902
RightToes  -1.74624e-010 0 -3.6325e-017
Spine  5.62793 2.7475 6.32485
Spine1  2.39333 4.67079 -8.13413
HEad  -4.14229 6.03974 -6.88793
LeftShoulder1  3.05224 -4.09059 -34.1707
LeftArm  5.77945 7.66035 -30.559
LeftForeArm  2.88819 -2.37022 -17.4985
LeftHand  -0.87372 -3.25714 11.9547
RightShoulder  6.39435 4.23545 69.8113
RightArm  13.9285 4.35093 -3.72313
RightForeArm  19.3965 -0.59717 15.766
RightHand  0.177592 17.1174 0.431522
LeftUpLeg  18.1947 6.75311 3.35253
LeftLeg  -5.24731 10.7356 0.326601
LeftFoot  -5.70314 -0.10193 2.76831
LeftToes  -6.43926e-010 8.38805e-011 -3.16407e-011
532
root  43.238 38.3323 -140.319 -8.81235 -77.0984 -0.199219
RightUpLeg  16.7651 -2.78748 -2.01492
RightLeg  -6.60777 -11.1068 -1.6694
RightFoot  -2.33507 -0.769603 9.46168
RightToes  -1.74624e-010 0 -3.6325e-017
Spine  5.66808 2.72349 6.4463
Spine1  2.32527 4.68269 -8.16653
HEad  -3.91314 6.2482 -6.8662
LeftShoulder1  3.06422 -4.12668 -34.1383
LeftArm  6.22377 7.7955 -30.6923
LeftForeArm  2.4879 -2.8596 -17.4087
LeftHand  -0.887411 -3.19537 12.2202
RightShoulder  6.49652 4.35467 69.8423
RightArm  14.0187 4.47474 -3.69294
RightForeArm  19.7441 -0.299858 15.6957
RightHand  0.192752 17.5589 0.487042
LeftUpLeg  18.3726 6.63982 3.34636
LeftLeg  -5.52695 10.9805 0.402899
LeftFoot  -5.6565 -0.104897 2.80059
LeftToes  -6.43926e-010 8.38805e-011 -3.16407e-011
533
root  43.2191 38.3375 -140.329 -8.80063 -77.1991 -0.240601
RightUpLeg  16.8779 -2.72164 -1.96019
RightLeg  -6.74825 -11.1065 -1.65952
RightFoot  -2.2595 -0.763647 9.39929
RightToes  -1.74624e-010 0 -3.6325e-017
Spine  5.59993 2.76892 6.42539
Spine1  2.3435 4.71347 -8.23473
HEad  -3.87592 6.52677 -6.93738
LeftShoulder1  3.06875 -4.13938 -34.1311
LeftArm  6.25314 7.84363 -30.8999
LeftForeArm  12.4968 -3.14265 -16.8655
LeftHand  -2.23815 -9.87203 17.2665
RightShoulder  6.58909 4.46783 69.8331
RightArm  13.9756 4.59741 -3.66678
RightForeArm  19.4946 0.0343457 15.6206
RightHand  0.148795 17.3854 0.273217
LeftUpLeg  18.2445 6.64326 3.34655
LeftLeg  -5.07424 11.0195 0.543934
LeftFoot  -5.74615 -0.0947697 2.63275
LeftToes  -6.43926e-010 8.38805e-011 -3.16407e-011
534
root  43.2068 38.3384 -140.331 -8.88002 -77.2568 -0.165314
RightUpLeg  16.8787 -2.69997 -1.94419
RightLeg  -6.71632 -11.0204 -1.72586
RightFoot  -2.2683 -0.757897 9.33998
RightToes  -1.74624e-010 0 -3.6325e-017
Spine  5.6132 2.74796 6.58503
Spine1  2.24132 4.76712 -8.55467
HEad  -4.09963 7.12775 -6.80652
LeftShoulder1  3.04523 -4.12146 -33.9192
LeftArm  5.59139 7.70081 -31.2055
LeftForeArm  2.92554 -2.77831 -17.3528
LeftHand  -0.868246 -2.97319 12.2658
RightShoulder  6.67215 4.54609 69.9884
RightArm  14.3008 4.6587 -3.66642
RightForeArm  19.0584 0.644362 15.5352
RightHand  0.113713 17.308 0.0981912
LeftUpLeg  18.3386 6.63951 3.35061
LeftLeg  -5.20272 11.0686 0.496889
LeftFoot  -5.71048 -0.0907978 2.56458
LeftToes  -6.43926e-010 8.38805e-011 -3.16407e-011
535
root  43.199 38.3384 -140.329 -8.96245 -77.2235 -0.0903015
RightUpLeg  16.9612 -2.70149 -1.94946
RightLeg  -6.82753 -11.14 -1.71592
RightFoot  -2.24384 -0.760707 9.41184
RightToes  -1.74624e-010 0 -3.6325e-017
Spine  4.95444 3.30081 5.48081
Spine1  3.30082 4.93405 -6.65956
HEad  -4.56771 6.80788 -7.57239
LeftShoulder1  3.11914 -4.19012 -34.5164
LeftArm  5.30984 6.72099 -31.7633
LeftForeArm  3.36593 -2.39596 -17.4237
LeftHand  -0.879761 -3.26816 12.0205
RightShoulder  6.34795 4.3355 68.676
RightArm  15.0701 4.7773 -3.14186
RightForeArm  18.0816 1.72869 15.3662
RightHand  0.137033 17.4037 0.213015
LeftUpLeg  18.3748 6.62956 3.33231
LeftLeg  -5.22887 10.9977 0.503388
LeftFoot  -5.75008 -0.0843323 2.46178
LeftToes  -6.43926e-010 8.38805e-011 -3.16407e-011
536
root  43.1996 38.3368 -140.325 -9.0535 -77.0909 -0.0275726
RightUpLeg  17.0741 -2.75143 -2.00918
RightLeg  -6.97785 -11.0599 -1.63575
RightFoot  -2.14862 -0.742004 9.14207
RightToes  -1.74624e-010 0 -3.6325e-017
Spine  4.99652 3.31507 5.34659
Spine1  3.19769 4.89587 -6.4911
HEad  -4.55733 6.77578 -7.73992
LeftShoulder1  3.13447 -4.19107 -34.7077
LeftArm  4.80601 6.56838 -31.875
LeftForeArm  0.0873318 -2.18704 -17.5885
LeftHand  -0.529822 -0.641087 10.3157
RightShoulder  6.33996 4.34905 68.5079
RightArm  15.2698 4.84321 -3.0741
RightForeArm  18.1188 2.17438 15.2491
RightHand  0.10434 17.4621 0.0459807
LeftUpLeg  18.3208 6.6183 3.29415
LeftLeg  -5.09863 10.9597 0.561415
LeftFoot  -5.71945 -0.0936189 2.60845
LeftToes  -6.43926e-010 8.38805e-011 -3.16407e-011
537
root  43.2073 38.3339 -140.32 -9.20663 -76.971 0.0867157
RightUpLeg  17.1242 -2.76024 -2.04489
RightLeg  -6.95959 -11.3026 -1.62287
RightFoot  -2.23046 -0.756916 9.38998
RightToes  -1.74624e-010 0 -3.6325e-017
Spine  4.75455 3.15116 5.88622
Spine1  3.58502 4.95217 -7.38576
HEad  -4.99066 7.18424 -7.4289
LeftShoulder1  3.10035 -4.18633 -34.2952
LeftArm  4.3732 6.5152 -32.2102
LeftForeArm  6.11308 -2.2158 -17.2464
LeftHand  -1.19327 -3.95938 15.0257
RightShoulder  6.57964 4.59623 68.8503
RightArm  15.1415 4.96794 -3.06469
RightForeArm  18.0011 2.48362 15.1454
RightHand  0.07897 17.454 -0.081761
LeftUpLeg  18.2798 6.59585 3.2515
LeftLeg  -4.97948 10.8882 0.607093
LeftFoot  -5.75954 -0.0922558 2.60418
LeftToes  -6.43926e-010 8.38805e-011 -3.16407e-011
538
root  43.2185 38.3325 -140.312 -9.24806 -76.9059 0.0814056
RightUpLeg  17.101 -2.73909 -2.02185
RightLeg  -6.82398 -11.4203 -1.6954
RightFoot  -2.27093 -0.762114 9.47563
RightToes  -1.74624e-010 0 -3.6325e-017
Spine  4.55751 2.69749 7.07314
Spine1  3.87841 4.95785 -9.2823
HEad  -5.40547 7.69316 -6.86373
LeftShoulder1  2.97353 -4.06975 -33.2503
LeftArm  3.92154 6.97161 -32.6873
LeftForeArm  3.5482 -2.62987 -17.1913
LeftHand  -0.844867 -2.78852 12.2006
RightShoulder  7.12211 5.11875 69.7903
RightArm  14.8243 5.24658 -3.24047
RightForeArm  18.2844 2.32271 15.1599
RightHand  0.0943161 17.5313 -0.00646763
LeftUpLeg  18.2957 6.59113 3.26866
LeftLeg  -4.94458 10.7269 0.602737
LeftFoot  -5.80467 -0.0834378 2.47899
LeftToes  -6.43926e-010 8.38805e-011 -3.16407e-011
539
root  43.2396 38.3296 -140.303 -9.08105 -76.8086 -0.130936
RightUpLeg  17.1079 -2.84597 -2.07813
RightLeg  -6.77506 -11.3426 -1.60141
RightFoot  -2.26613 -0.756836 9.38444
RightToes  -1.74624e-010 0 -3.6325e-017
Spine  4.80226 2.96523 6.19781
Spine1  3.38441 4.82322 -7.56233
HEad  -4.98887 7.39394 -7.55725
LeftShoulder1  3.0552 -4.01422 -34.6115
LeftArm  5.24602 6.73013 -32.022
LeftForeArm  2.7665 -2.90465 -17.284
LeftHand  -0.851009 -2.87194 12.1688
RightShoulder  6.96868 5.0515 69.0036
RightArm  15.0412 5.10928 -3.24158
RightForeArm  18.4562 2.48562 15.1186
RightHand  0.0908002 17.6596 -0.027534
LeftUpLeg  18.3867 6.58246 3.29054
LeftLeg  -5.18731 10.8354 0.555399
LeftFoot  -5.76845 -0.102749 2.78901
LeftToes  -6.43926e-010 8.38805e-011 -3.16407e-011
540
root  43.2503 38.3332 -140.3 -9.50894 -76.7147 0.202225
RightUpLeg  17.1617 -2.74618 -2.0745
RightLeg  -6.66471 -11.5769 -1.73574
RightFoot  -2.30939 -0.76848 9.54233
RightToes  -1.74624e-010 0 -3.6325e-017
Spine  5.35428 3.43998 5.28376
Spine1  2.46776 4.9663 -6.37895
HEad  -4.73192 7.23392 -7.8632
LeftShoulder1  3.19306 -4.19391 -35.4399
LeftArm  5.25163 6.47301 -31.6647
LeftForeArm  3.59442 -2.37026 -17.4128
LeftHand  -0.894107 -3.22959 12.2634
RightShoulder  6.42907 4.46496 68.468
RightArm  15.4784 4.90233 -3.19813
RightForeArm  18.0559 2.86396 15.064
RightHand  0.102796 17.6284 0.0333337
LeftUpLeg  18.3884 6.62683 3.26265
LeftLeg  -4.94029 10.538 0.577296
LeftFoot  -5.81061 -0.0886803 2.57766
LeftToes  -6.43926e-010 8.38805e-011 -3.16407e-011
541
root  43.2701 38.3273 -140.289 -9.44824 -76.5696 0.0843658
RightUpLeg  17.2133 -2.81854 -2.10591
RightLeg  -6.66253 -11.6217 -1.69646
RightFoot  -2.31109 -0.771936 9.55398
RightToes  -1.74624e-010 0 -3.6325e-017
Spine  5.2998 3.35354 5.36743
Spine1  2.46343 4.89316 -6.35906
HEad  -4.78344 7.2684 -7.97746
LeftShoulder1  3.16125 -4.12627 -35.3913
LeftArm  5.4676 7.17856 -31.622
LeftForeArm  3.13141 -3.32069 -17.1551
LeftHand  -0.855153 -2.9416 12.1291
RightShoulder  6.57008 4.62813 68.5471
RightArm  15.1112 4.90363 -3.30542
RightForeArm  18.5806 2.62941 15.0725
RightHand  0.152118 17.9426 0.267877
LeftUpLeg  18.4979 6.60806 3.25376
LeftLeg  -5.20152 10.6108 0.539623
LeftFoot  -5.75172 -0.109724 2.91099
LeftToes  -6.43926e-010 8.38805e-011 -3.16407e-011
542
root  43.2859 38.3318 -140.289 -9.78551 -76.5041 0.350357
RightUpLeg  17.43 -2.90723 -2.25743
RightLeg  -6.96638 -11.5719 -1.54298
RightFoot  -2.18678 -0.768562 9.39289
RightToes  -1.74624e-010 0 -3.6325e-017
Spine  5.27314 3.41831 5.46341
Spine1  2.55462 5.02767 -6.74008
HEad  -4.87112 7.273 -7.75977
LeftShoulder1  3.16065 -4.18991 -35.0482
LeftArm  5.34063 7.48467 -31.7353
LeftForeArm  3.2372 -3.55656 -17.0526
LeftHand  -0.847745 -2.84707 12.1582
RightShoulder  6.47093 4.48429 68.6966
RightArm  14.9936 4.96401 -3.23658
RightForeArm  18.2726 2.5924 15.085
RightHand  0.0854729 17.5432 -0.0512314
LeftUpLeg  18.4362 6.65015 3.25178
LeftLeg  -4.88946 10.2729 0.559043
LeftFoot  -5.81792 -0.0923402 2.6451
LeftToes  -6.43926e-010 8.38805e-011 -3.16407e-011
543
root  43.3131 38.3339 -140.289 -10.051 -76.331 0.616135
RightUpLeg  17.4735 -2.96246 -2.35682
RightLeg  -7.07476 -11.648 -1.50325
RightFoot  -2.13589 -0.777192 9.45179
RightToes  -1.74624e-010 0 -3.6325e-017
Spine  4.8388 3.34257 5.51531
Spine1  3.35169 5.02113 -6.88288
HEad  -5.6235 7.41396 -7.88124
LeftShoulder1  3.08371 -4.08332 -34.6177
LeftArm  6.2468 8.18179 -31.9895
LeftForeArm  2.02118 -5.03 -16.6403
LeftHand  -0.804003 -2.5924 11.8965
RightShoulder  6.57518 4.61913 68.6531
RightArm  15.1858 5.08253 -3.10113
RightForeArm  17.8117 2.73006 15.0932
RightHand  0.0903662 17.5143 -0.0258762
LeftUpLeg  18.3474 6.57615 3.12218
LeftLeg  -4.84675 10.2445 0.604629
LeftFoot  -5.75296 -0.0988797 2.75057
LeftToes  -6.43926e-010 8.38805e-011 -3.16407e-011
